<svg aria-hidden="true" style="position: absolute; width: 0; height: 0; overflow: hidden;" version="1.1" xmlns="http://www.w3.org/2000/svg" xmlns:xlink="http://www.w3.org/1999/xlink">
<defs>
<symbol id="fire" viewBox="0 0 22 30">
<path d="M20.5392 15.5558C20.2734 14.9604 19.9067 14.374 19.3705 13.6967C18.0184 11.9967 17.6059 8.20581 17.6013 8.16945C17.583 7.98763 17.4547 7.83763 17.2851 7.78309C17.1109 7.72854 16.923 7.77854 16.7992 7.9149C15.1859 9.71945 15.8642 12.5058 16.2309 13.6194C16.3317 13.924 16.4417 14.2831 16.5196 14.6467C17.1154 17.5876 15.965 18.9194 15.6946 19.1876C15.4334 19.2604 15.2546 19.224 15.0896 19.0467C14.5213 18.424 14.3334 16.3831 14.5992 13.724C14.6542 13.1831 14.6404 12.6967 14.5625 12.2422C14.0019 8.97386 11.9463 6.8774 11.4229 6.14218C9.98378 4.0149 9.83711 0.473994 9.83253 0.442176C9.82794 0.273994 9.73169 0.123994 9.58044 0.0512668C9.43378 -0.0214604 9.25503 -0.0123695 9.11753 0.083085C6.71586 1.7149 6.92211 5.64672 7.25669 7.84218C7.33461 8.35127 7.48586 8.86945 7.74711 9.524C8.67753 11.8649 7.56378 14.8876 7.55461 14.9149C7.54544 14.9422 7.53628 14.9649 7.53169 14.9922C7.38961 15.7376 7.15128 16.1831 6.88544 16.1831C6.85794 16.1831 6.83044 16.1785 6.79836 16.1694C6.47294 16.1013 6.30336 15.7558 6.29878 15.4558C6.28044 11.5785 2.38919 10.274 2.34794 10.2604C2.17378 10.2058 1.98128 10.2558 1.86211 10.3967C1.73836 10.5376 1.71544 10.7331 1.79794 10.8967C1.84378 10.9922 1.99044 11.4104 1.88961 12.8876C1.80253 14.2149 1.55961 15.5285 1.17003 16.7876C0.244194 19.8058 0.39086 22.6649 0.400027 22.8013C1.11196 30.5425 12.2451 31.899 18.8525 27.5376C19.5767 27.0604 20.1679 26.5149 20.6034 25.9149C23.0417 22.5513 21.6072 17.9831 20.5392 15.5558ZM3.60382 22.9513C3.61757 23.2013 3.42507 23.4149 3.17299 23.4285H3.14549C2.90257 23.4285 2.70091 23.2422 2.68716 23.0013C2.64591 22.3376 2.65507 21.6422 2.70549 20.8876C2.72382 20.6376 2.94382 20.4513 3.19591 20.4649C3.44799 20.483 3.64049 20.7012 3.62216 20.9512C3.57169 21.6695 3.56257 22.324 3.60382 22.9513ZM3.82836 18.924C3.80086 19.1558 3.60378 19.324 3.37461 19.324C3.35628 19.324 3.33794 19.324 3.31503 19.3195C3.06753 19.2876 2.88878 19.0649 2.91628 18.8149L3.13628 17.0604C3.16836 16.8149 3.39294 16.6376 3.64961 16.6649C3.90169 16.6967 4.08044 16.924 4.04836 17.174L3.82836 18.924Z"/>
<path d="M17.4384 6.21861C17.1884 6.1802 17.017 5.94851 17.0555 5.70061C17.0841 5.51592 17.2497 4.57047 17.6991 4.09506C17.8721 3.91174 18.1617 3.9022 18.347 4.07442C18.5316 4.24597 18.541 4.53365 18.3678 4.71697C18.1776 4.91829 18.0156 5.49442 17.9614 5.83915C17.9228 6.08442 17.6921 6.25656 17.4384 6.21861Z"/>
<path d="M0.72939 8.48281C0.641665 8.14476 0.423681 7.58726 0.214452 7.40526C0.0240147 7.23967 0.00499382 6.95249 0.171919 6.76385C0.338431 6.57476 0.627777 6.55544 0.818673 6.72167C1.31257 7.15113 1.57061 8.07599 1.61741 8.25685C1.68006 8.4999 1.53239 8.74713 1.28755 8.80972C1.0373 8.87213 0.791769 8.72181 0.72939 8.48281Z"/>
</symbol>

<symbol id="letters" viewBox="0 0 128 45">
<path d="M19.136 6.8V25H13.988V17.902H6.968V25H1.82V6.8H6.968V13.638H13.988V6.8H19.136ZM37.9773 17.98C37.9773 18.0147 37.9513 18.422 37.8993 19.202H27.6553C27.8633 19.93 28.2619 20.4933 28.8513 20.892C29.4579 21.2733 30.2119 21.464 31.1133 21.464C31.7893 21.464 32.3699 21.3687 32.8553 21.178C33.3579 20.9873 33.8606 20.6753 34.3633 20.242L36.9633 22.946C35.5939 24.4713 33.5919 25.234 30.9573 25.234C29.3106 25.234 27.8633 24.922 26.6153 24.298C25.3673 23.674 24.3966 22.8073 23.7033 21.698C23.0273 20.5887 22.6893 19.332 22.6893 17.928C22.6893 16.5413 23.0186 15.302 23.6773 14.21C24.3533 13.1007 25.2806 12.234 26.4593 11.61C27.6379 10.986 28.9639 10.674 30.4373 10.674C31.8413 10.674 33.1153 10.9687 34.2593 11.558C35.4033 12.13 36.3046 12.9707 36.9633 14.08C37.6393 15.172 37.9773 16.472 37.9773 17.98ZM30.4633 14.184C29.7006 14.184 29.0593 14.4007 28.5393 14.834C28.0366 15.2673 27.7159 15.8567 27.5773 16.602H33.3493C33.2106 15.8567 32.8813 15.2673 32.3613 14.834C31.8586 14.4007 31.2259 14.184 30.4633 14.184ZM41.2949 5.708H46.2349V25H41.2949V5.708ZM50.4853 5.708H55.4253V25H50.4853V5.708Z" fill="#111518"/>
<path d="M6.488 41.8H3.888L3.392 43H2.064L4.56 37.4H5.84L8.344 43H6.984L6.488 41.8ZM6.08 40.816L5.192 38.672L4.304 40.816H6.08ZM16.3495 41.944V44.16H15.1495V43H11.1975V44.16H9.9975L10.0055 41.944H10.2295C10.5655 41.9333 10.8028 41.688 10.9415 41.208C11.0802 40.728 11.1655 40.0427 11.1975 39.152L11.2615 37.4H15.5655V41.944H16.3495ZM12.3415 39.272C12.3148 39.9387 12.2588 40.4987 12.1735 40.952C12.0882 41.4 11.9575 41.7307 11.7815 41.944H14.2855V38.456H12.3655L12.3415 39.272ZM21.3099 43.096C20.7393 43.096 20.2219 42.9733 19.7579 42.728C19.2993 42.4773 18.9366 42.1333 18.6699 41.696C18.4086 41.2533 18.2779 40.7547 18.2779 40.2C18.2779 39.6453 18.4086 39.1493 18.6699 38.712C18.9366 38.2693 19.2993 37.9253 19.7579 37.68C20.2219 37.4293 20.7419 37.304 21.3179 37.304C21.8033 37.304 22.2406 37.3893 22.6299 37.56C23.0246 37.7307 23.3553 37.976 23.6219 38.296L22.7899 39.064C22.4113 38.6267 21.9419 38.408 21.3819 38.408C21.0353 38.408 20.7259 38.4853 20.4539 38.64C20.1819 38.7893 19.9686 39 19.8139 39.272C19.6646 39.544 19.5899 39.8533 19.5899 40.2C19.5899 40.5467 19.6646 40.856 19.8139 41.128C19.9686 41.4 20.1819 41.6133 20.4539 41.768C20.7259 41.9173 21.0353 41.992 21.3819 41.992C21.9419 41.992 22.4113 41.7707 22.7899 41.328L23.6219 42.096C23.3553 42.4213 23.0246 42.6693 22.6299 42.84C22.2353 43.0107 21.7953 43.096 21.3099 43.096ZM28.0746 40.744H27.1786V43H25.8906V37.4H27.1786V39.664H28.1066L29.5786 37.4H30.9466L29.1146 40.104L31.0026 43H29.5306L28.0746 40.744ZM33.0498 37.4H34.3378V41.048L37.0098 37.4H38.2258V43H36.9458V39.36L34.2738 43H33.0498V37.4ZM41.0601 37.4H42.3481V41.048L45.0201 37.4H46.2361V43H44.9561V39.36L42.2841 43H41.0601V37.4ZM43.6441 37.04C42.6201 37.04 42.1027 36.632 42.0921 35.816H42.9801C42.9907 36.2053 43.2121 36.4 43.6441 36.4C43.8574 36.4 44.0201 36.352 44.1321 36.256C44.2441 36.1547 44.3027 36.008 44.3081 35.816H45.1961C45.1907 36.216 45.0601 36.52 44.8041 36.728C44.5481 36.936 44.1614 37.04 43.6441 37.04Z" fill="#FF6B09"/>
<path d="M56.568 41.8H53.968L53.472 43H52.144L54.64 37.4H55.92L58.424 43H57.064L56.568 41.8ZM56.16 40.816L55.272 38.672L54.384 40.816H56.16ZM65.7426 37.4V43H64.4466V40.704H61.9026V43H60.6066V37.4H61.9026V39.608H64.4466V37.4H65.7426ZM72.5297 38.456H69.8657L69.8737 43H68.5857V37.4H72.5377L72.5297 38.456ZM79.0646 37.4V43H77.7846V38.456H75.8646L75.8246 39.624C75.7979 40.4187 75.7339 41.064 75.6326 41.56C75.5312 42.0507 75.3606 42.4293 75.1206 42.696C74.8859 42.9573 74.5552 43.088 74.1286 43.088C73.9526 43.088 73.7392 43.0587 73.4886 43L73.5686 41.904C73.6379 41.9253 73.7152 41.936 73.8006 41.936C74.1099 41.936 74.3259 41.7547 74.4486 41.392C74.5712 41.024 74.6486 40.4507 74.6806 39.672L74.7606 37.4H79.0646ZM81.9032 37.4H83.1912V41.048L85.8632 37.4H87.0792V43H85.7992V39.36L83.1272 43H81.9032V37.4ZM89.9135 37.4H91.2015V41.048L93.8735 37.4H95.0895V43H93.8095V39.36L91.1375 43H89.9135V37.4ZM92.4975 37.04C91.4735 37.04 90.9562 36.632 90.9455 35.816H91.8335C91.8442 36.2053 92.0655 36.4 92.4975 36.4C92.7108 36.4 92.8735 36.352 92.9855 36.256C93.0975 36.1547 93.1562 36.008 93.1615 35.816H94.0495C94.0442 36.216 93.9135 36.52 93.6575 36.728C93.4015 36.936 93.0148 37.04 92.4975 37.04ZM100.572 43.096C100.001 43.096 99.4838 42.9733 99.0198 42.728C98.5611 42.4773 98.1985 42.1333 97.9318 41.696C97.6705 41.2533 97.5398 40.7547 97.5398 40.2C97.5398 39.6453 97.6705 39.1493 97.9318 38.712C98.1985 38.2693 98.5611 37.9253 99.0198 37.68C99.4838 37.4293 100.004 37.304 100.58 37.304C101.065 37.304 101.502 37.3893 101.892 37.56C102.286 37.7307 102.617 37.976 102.884 38.296L102.052 39.064C101.673 38.6267 101.204 38.408 100.644 38.408C100.297 38.408 99.9878 38.4853 99.7158 38.64C99.4438 38.7893 99.2305 39 99.0758 39.272C98.9265 39.544 98.8518 39.8533 98.8518 40.2C98.8518 40.5467 98.9265 40.856 99.0758 41.128C99.2305 41.4 99.4438 41.6133 99.7158 41.768C99.9878 41.9173 100.297 41.992 100.644 41.992C101.204 41.992 101.673 41.7707 102.052 41.328L102.884 42.096C102.617 42.4213 102.286 42.6693 101.892 42.84C101.497 43.0107 101.057 43.096 100.572 43.096ZM107.337 40.744H106.441V43H105.153V37.4H106.441V39.664H107.369L108.841 37.4H110.209L108.377 40.104L110.265 43H108.793L107.337 40.744ZM112.312 37.4H113.6V41.048L116.272 37.4H117.488V43H116.208V39.36L113.536 43H112.312V37.4ZM120.322 37.4H121.61V41.048L124.282 37.4H125.498V43H124.218V39.36L121.546 43H120.322V37.4ZM122.906 37.04C121.882 37.04 121.365 36.632 121.354 35.816H122.242C122.253 36.2053 122.474 36.4 122.906 36.4C123.119 36.4 123.282 36.352 123.394 36.256C123.506 36.1547 123.565 36.008 123.57 35.816H124.458C124.453 36.216 124.322 36.52 124.066 36.728C123.81 36.936 123.423 37.04 122.906 37.04Z" fill="#111518"/>
<path d="M104.432 21.022V25H89.82V6.8H104.094V10.778H94.916V13.846H103.002V17.694H94.916V21.022H104.432ZM125.645 6.8V25H121.407L113.373 15.302V25H108.329V6.8H112.567L120.601 16.498V6.8H125.645Z" fill="#111518"/>
</symbol>

</defs>
</svg>